<?xml version="1.0" encoding="UTF-8" ?>
<!DOCTYPE svg PUBLIC "-//W3C//DTD SVG 1.1//EN" "http://www.w3.org/Graphics/SVG/1.1/DTD/svg11.dtd">
<svg width="1024pt" height="283pt" viewBox="0 0 1024 283" version="1.1" xmlns="http://www.w3.org/2000/svg">
<path fill="#feffff" d=" M 0.00 0.00 L 1024.00 0.00 L 1024.00 283.00 L 0.00 283.00 L 0.00 0.00 Z" />
<path fill="#0787bf" d=" M 461.02 25.98 C 477.49 19.62 496.22 19.34 512.87 25.21 C 528.62 30.68 542.38 41.60 551.32 55.67 C 559.57 68.46 563.55 83.81 563.01 99.00 C 559.34 99.00 555.67 99.00 552.00 99.00 C 552.65 84.95 549.13 70.60 541.10 58.96 C 531.18 44.16 514.79 33.91 497.11 31.60 C 481.57 29.42 465.27 33.29 452.40 42.28 C 439.87 50.91 430.62 64.17 426.95 78.93 C 425.23 85.47 424.86 92.26 425.01 98.99 C 425.26 113.01 421.47 127.09 414.13 139.04 C 405.22 153.72 391.11 165.15 374.89 170.78 C 357.98 176.76 338.92 176.37 322.26 169.72 C 306.53 163.51 293.05 151.80 284.72 137.08 C 277.76 124.99 274.51 110.92 274.99 97.00 C 278.66 97.00 282.33 97.00 286.00 97.00 C 285.39 110.60 288.62 124.48 296.15 135.91 C 304.75 149.31 318.57 159.28 334.05 163.08 C 349.65 167.06 366.72 164.75 380.71 156.79 C 395.35 148.57 406.49 134.32 410.79 118.08 C 412.71 111.23 413.16 104.07 412.99 96.99 C 412.74 82.74 416.68 68.43 424.25 56.35 C 432.78 42.60 445.90 31.76 461.02 25.98 Z" />
<path fill="#0787bf" d=" M 462.33 65.28 C 473.33 57.01 488.50 54.75 501.46 59.36 C 517.88 64.84 529.95 81.26 529.94 98.63 C 526.36 98.51 522.77 98.51 519.19 98.62 C 518.65 88.47 513.68 78.41 504.94 72.92 C 494.80 66.10 480.57 66.49 470.79 73.79 C 462.79 79.42 458.34 88.98 457.83 98.60 C 453.57 98.51 449.31 98.51 445.05 98.61 C 445.13 85.60 451.83 72.91 462.33 65.28 Z" />
<path fill="#0c0c0c" d=" M 67.00 91.00 C 69.83 91.00 72.66 91.00 75.49 91.00 C 75.55 106.56 75.37 122.13 75.58 137.69 C 72.73 137.78 69.87 137.78 67.02 137.80 C 66.97 122.20 67.02 106.60 67.00 91.00 Z" />
<path fill="#0c0c0c" d=" M 871.20 92.19 C 873.54 91.51 876.92 91.09 878.48 93.44 C 879.76 95.77 879.09 99.78 876.02 100.20 C 873.75 100.50 870.49 100.56 869.66 97.88 C 869.28 95.91 869.21 93.35 871.20 92.19 Z" />
<path fill="#0c0c0c" d=" M 155.13 97.06 C 157.16 97.00 159.19 96.98 161.22 96.94 C 161.28 99.37 161.29 101.80 161.29 104.23 C 164.33 104.24 167.38 104.25 170.42 104.15 C 170.48 106.19 170.50 108.24 170.50 110.28 C 167.43 110.28 164.36 110.28 161.29 110.28 C 161.32 116.17 161.18 122.08 161.33 127.97 C 161.26 129.99 162.94 131.91 165.01 131.85 C 166.94 131.73 168.83 131.33 170.75 131.11 C 170.76 133.22 170.76 135.33 170.70 137.44 C 166.56 138.32 162.15 138.85 158.01 137.70 C 154.33 136.55 152.57 132.53 152.56 128.93 C 152.43 122.72 152.54 116.51 152.53 110.30 C 151.11 110.29 149.69 110.28 148.28 110.27 C 148.24 109.35 148.17 107.51 148.14 106.60 C 149.69 105.67 151.27 104.80 152.87 103.95 C 153.63 101.66 154.39 99.36 155.13 97.06 Z" />
<path fill="#0787bf" d=" M 308.02 97.40 C 311.61 97.48 315.20 97.50 318.79 97.36 C 319.37 106.99 323.76 116.57 331.77 122.20 C 341.77 129.71 356.44 129.90 366.62 122.63 C 374.97 117.06 379.66 107.25 380.17 97.38 C 384.43 97.50 388.68 97.49 392.94 97.38 C 392.88 110.38 386.20 123.08 375.70 130.71 C 365.08 138.67 350.61 141.11 337.96 137.11 C 320.84 132.07 308.09 115.28 308.02 97.40 Z" />
<path fill="#0c0c0c" d=" M 12.88 106.36 C 19.05 103.80 26.05 102.71 32.56 104.59 C 36.13 105.69 38.63 109.23 38.73 112.92 C 38.83 121.20 38.75 129.48 38.76 137.76 C 36.58 137.77 34.41 137.77 32.24 137.76 C 32.02 137.08 31.56 135.72 31.33 135.04 C 26.87 138.57 20.84 139.07 15.45 137.71 C 8.86 135.43 7.85 125.80 12.07 120.99 C 17.09 116.63 24.20 117.42 30.36 116.93 C 30.39 114.32 29.79 111.20 27.02 110.19 C 23.10 109.07 19.51 111.59 15.83 112.47 C 13.99 111.03 13.52 108.49 12.88 106.36 Z" />
<path fill="#0c0c0c" d=" M 101.21 110.03 C 102.16 106.61 105.68 104.80 108.91 104.13 C 114.71 103.11 120.78 103.76 126.20 106.07 C 125.37 108.09 124.54 110.11 123.74 112.15 C 119.62 111.79 115.74 108.99 111.52 110.31 C 109.65 110.81 108.65 113.21 110.45 114.49 C 114.83 117.79 121.03 118.10 124.76 122.38 C 128.64 127.42 126.08 136.14 119.58 137.49 C 113.65 138.79 107.13 138.84 101.39 136.66 C 100.50 134.45 101.19 131.87 101.02 129.52 C 105.82 130.34 110.63 133.49 115.58 131.64 C 117.51 131.16 118.83 128.35 117.06 126.92 C 112.93 123.35 106.82 123.07 102.94 119.11 C 100.61 116.77 100.47 113.06 101.21 110.03 Z" />
<path fill="#0c0c0c" d=" M 196.18 109.22 C 198.76 105.41 203.49 103.58 207.98 103.68 C 212.52 103.44 217.61 104.64 220.44 108.47 C 223.73 112.53 223.54 118.06 223.50 123.00 C 216.27 123.01 209.05 122.98 201.83 123.01 C 202.10 126.49 203.78 130.27 207.32 131.46 C 212.16 133.13 217.01 130.74 221.61 129.40 C 221.79 131.73 221.80 134.07 221.68 136.40 C 216.38 138.46 210.56 138.71 204.97 137.98 C 199.30 137.15 194.69 132.47 193.54 126.92 C 192.40 121.01 192.64 114.32 196.18 109.22 Z" />
<path fill="#0c0c0c" d=" M 249.01 104.22 C 251.36 104.23 253.72 104.23 256.07 104.22 C 256.25 105.51 256.41 106.80 256.56 108.10 C 260.03 104.00 265.46 103.03 270.55 103.89 C 270.38 106.36 270.14 108.83 269.94 111.31 C 264.88 109.86 258.84 112.49 257.86 117.98 C 257.04 124.48 257.62 131.12 257.59 137.67 C 254.73 137.79 251.87 137.79 249.02 137.79 C 248.98 126.60 249.00 115.41 249.01 104.22 Z" />
<path fill="#0c0c0c" d=" M 528.47 107.60 C 531.74 103.76 537.26 103.42 541.94 103.79 C 546.93 104.44 551.97 104.21 556.99 104.22 C 556.99 105.80 557.00 107.39 557.01 108.98 C 555.41 109.21 553.82 109.45 552.23 109.67 C 553.65 113.92 554.06 119.25 550.72 122.73 C 547.55 126.25 542.52 126.64 538.09 126.52 C 536.14 126.23 535.67 128.41 535.02 129.74 C 540.45 132.68 547.19 129.31 552.63 132.43 C 557.28 134.85 557.69 141.36 555.57 145.63 C 552.71 150.67 546.40 152.04 541.05 152.27 C 535.76 152.36 529.43 152.71 525.52 148.47 C 521.66 143.98 523.83 136.26 529.67 134.71 C 526.56 131.98 527.20 126.75 530.80 124.74 C 525.31 121.07 524.48 112.63 528.47 107.60 Z" />
<path fill="#0c0c0c" d=" M 575.78 104.24 C 578.91 104.22 582.05 104.24 585.18 104.22 C 587.86 111.40 590.32 118.66 592.95 125.86 C 593.11 126.07 593.42 126.47 593.58 126.68 C 595.08 118.98 598.51 111.83 600.62 104.29 C 603.79 104.21 606.98 104.22 610.16 104.23 C 605.77 116.59 601.00 128.81 596.46 141.12 C 595.06 144.80 593.26 148.77 589.63 150.72 C 585.88 152.90 581.35 152.40 577.24 151.87 C 577.23 149.72 577.23 147.58 577.24 145.44 C 579.68 145.47 582.49 146.40 584.61 144.73 C 587.06 142.97 587.82 139.91 588.83 137.23 C 584.43 126.26 579.89 115.33 575.78 104.24 Z" />
<path fill="#0c0c0c" d=" M 632.00 104.22 C 634.36 104.23 636.73 104.23 639.10 104.22 C 639.22 104.91 639.45 106.28 639.57 106.96 C 645.00 102.37 654.46 102.20 659.39 107.64 C 663.13 103.09 669.73 103.12 674.99 104.31 C 678.89 105.30 681.10 109.25 681.30 113.06 C 681.82 121.24 681.20 129.45 681.62 137.63 C 678.67 137.80 675.72 137.79 672.78 137.80 C 672.57 130.29 672.91 122.76 672.62 115.26 C 672.55 112.05 669.25 109.33 666.10 110.49 C 662.40 111.37 661.15 115.60 661.04 118.95 C 660.93 125.22 661.04 131.50 661.00 137.78 C 658.07 137.77 655.16 137.77 652.25 137.76 C 652.17 130.52 652.31 123.28 652.20 116.05 C 652.17 113.69 650.97 111.10 648.51 110.47 C 644.91 109.45 641.51 112.59 641.08 116.07 C 639.82 123.25 640.85 130.60 640.42 137.85 C 637.61 137.75 634.81 137.75 632.01 137.79 C 631.98 126.60 632.00 115.41 632.00 104.22 Z" />
<path fill="#0c0c0c" d=" M 709.03 104.20 C 711.39 104.22 713.75 104.23 716.12 104.23 C 716.22 104.91 716.43 106.26 716.54 106.94 C 721.24 103.27 727.81 102.81 733.30 104.75 C 737.47 106.27 739.22 110.94 739.24 115.06 C 739.30 122.64 739.34 130.23 739.19 137.82 C 736.31 137.75 733.43 137.74 730.56 137.84 C 730.43 130.91 730.57 123.98 730.50 117.05 C 730.42 114.69 729.79 111.72 727.32 110.79 C 723.51 108.99 718.87 111.86 718.17 115.87 C 716.76 123.08 717.83 130.51 717.47 137.82 C 714.65 137.76 711.83 137.76 709.02 137.80 C 708.99 126.60 708.97 115.40 709.03 104.20 Z" />
<path fill="#0c0c0c" d=" M 767.86 106.37 C 774.04 103.80 781.05 102.71 787.57 104.59 C 791.14 105.69 793.64 109.25 793.73 112.95 C 793.83 121.22 793.74 129.48 793.77 137.75 C 791.58 137.76 789.41 137.77 787.24 137.76 C 787.02 137.09 786.58 135.75 786.36 135.08 C 784.17 135.88 782.49 137.90 780.05 138.06 C 775.34 138.56 769.32 139.01 766.28 134.56 C 763.50 129.83 763.82 122.00 769.36 119.40 C 774.27 116.82 779.99 117.36 785.36 116.93 C 785.39 114.30 784.76 111.15 781.96 110.17 C 777.84 109.05 774.16 111.90 770.19 112.47 C 769.29 110.48 768.41 108.48 767.86 106.37 Z" />
<path fill="#0c0c0c" d=" M 820.22 109.97 C 821.19 106.61 824.66 104.81 827.86 104.14 C 833.67 103.10 839.75 103.75 845.20 106.06 C 844.37 108.08 843.55 110.10 842.76 112.13 C 838.44 111.81 834.20 108.63 829.86 110.60 C 828.18 111.42 828.05 113.39 829.49 114.53 C 833.89 117.79 840.09 118.12 843.80 122.43 C 847.61 127.48 845.06 136.13 838.59 137.49 C 832.63 138.81 826.08 138.82 820.31 136.64 C 819.64 134.34 820.10 131.88 820.02 129.52 C 824.81 130.33 829.61 133.49 834.56 131.65 C 836.28 131.23 836.69 129.44 837.19 128.00 C 833.21 123.64 826.75 123.39 822.41 119.57 C 819.67 117.26 819.39 113.23 820.22 109.97 Z" />
<path fill="#0c0c0c" d=" M 870.01 104.21 C 872.87 104.21 875.74 104.20 878.60 104.35 C 878.42 115.44 878.39 126.54 878.62 137.63 C 875.75 137.80 872.88 137.80 870.01 137.79 C 869.99 126.59 869.98 115.40 870.01 104.21 Z" />
<path fill="#0c0c0c" d=" M 906.79 104.19 C 909.60 104.24 912.41 104.24 915.23 104.20 C 915.35 110.81 915.22 117.43 915.28 124.04 C 915.33 126.34 915.58 128.92 917.34 130.62 C 920.16 133.06 924.89 131.78 926.69 128.68 C 928.16 126.06 928.23 122.96 928.25 120.04 C 928.22 114.77 928.22 109.51 928.24 104.25 C 931.15 104.23 934.07 104.23 936.99 104.21 C 937.00 115.40 937.01 126.60 936.99 137.79 C 934.61 137.77 932.23 137.77 929.86 137.77 C 929.60 136.86 929.34 135.95 929.10 135.04 C 925.09 138.93 919.02 138.73 913.90 137.87 C 909.39 136.96 906.54 132.38 906.73 127.95 C 906.73 120.03 906.65 112.11 906.79 104.19 Z" />
<path fill="#0c0c0c" d=" M 964.03 104.20 C 966.38 104.22 968.74 104.23 971.12 104.23 C 971.23 104.92 971.46 106.29 971.57 106.97 C 976.98 102.38 986.47 102.19 991.37 107.64 C 995.13 103.11 1001.73 103.10 1007.00 104.32 C 1011.31 105.40 1013.35 109.98 1013.40 114.09 C 1013.59 122.00 1013.48 129.93 1013.44 137.84 C 1010.53 137.75 1007.63 137.76 1004.74 137.77 C 1004.56 130.08 1005.00 122.36 1004.53 114.68 C 1004.22 111.41 1000.50 109.23 997.52 110.68 C 993.48 112.22 992.92 117.26 993.00 120.99 C 992.99 126.59 993.01 132.19 993.00 137.78 C 990.07 137.77 987.15 137.77 984.25 137.75 C 984.17 130.51 984.31 123.25 984.20 116.01 C 984.15 113.66 982.95 111.09 980.51 110.47 C 976.96 109.46 973.56 112.53 973.11 115.97 C 971.90 123.11 972.63 130.44 972.61 137.65 C 969.73 137.80 966.86 137.79 964.00 137.78 C 964.01 126.59 963.96 115.39 964.03 104.20 Z" />
<path fill="#feffff" d=" M 537.44 109.64 C 540.95 107.45 545.16 111.19 544.75 114.92 C 545.33 118.22 542.42 121.89 538.93 121.11 C 533.65 120.23 533.04 112.02 537.44 109.64 Z" />
<path fill="#feffff" d=" M 202.01 117.25 C 202.37 113.56 204.92 109.79 208.95 109.75 C 212.71 110.08 214.66 113.72 215.00 117.11 C 210.67 117.33 206.34 117.20 202.01 117.25 Z" />
<path fill="#feffff" d=" M 21.01 123.83 C 23.83 122.27 27.21 122.41 30.34 122.22 C 30.17 124.72 30.31 127.56 28.49 129.55 C 26.51 131.93 22.56 133.26 19.94 131.14 C 17.52 129.19 18.44 125.19 21.01 123.83 Z" />
<path fill="#feffff" d=" M 776.03 123.82 C 778.86 122.27 782.22 122.39 785.35 122.24 C 785.14 124.71 785.31 127.53 783.52 129.51 C 781.53 131.95 777.46 133.30 774.85 131.06 C 772.53 129.06 773.48 125.15 776.03 123.82 Z" />
<path fill="#feffff" d=" M 534.40 138.38 C 538.26 137.31 542.58 137.53 546.51 138.26 C 549.81 139.42 548.67 143.88 545.98 145.03 C 542.00 146.95 536.69 147.68 532.88 145.05 C 530.42 143.11 531.88 139.45 534.40 138.38 Z" />
<path fill="#0c0c0c" d=" M 525.02 156.21 C 526.67 156.21 528.32 156.21 529.98 156.21 C 530.01 159.47 530.00 162.74 530.00 166.00 C 533.24 166.00 536.49 166.00 539.74 165.97 C 539.71 162.72 539.71 159.46 539.74 156.21 C 541.41 156.22 543.08 156.24 544.76 156.25 C 544.82 164.32 544.69 172.40 544.83 180.47 C 543.11 180.47 541.40 180.47 539.70 180.47 C 539.73 176.90 539.72 173.33 539.71 169.77 C 536.47 169.77 533.23 169.77 530.00 169.77 C 530.00 173.34 530.00 176.91 530.00 180.49 C 528.33 180.49 526.66 180.49 525.00 180.49 C 525.02 172.39 524.96 164.30 525.02 156.21 Z" />
<path fill="#0c0c0c" d=" M 560.02 156.20 C 564.84 156.25 569.67 156.23 574.49 156.23 C 574.51 157.45 574.54 158.67 574.58 159.90 C 571.39 160.07 568.19 160.01 565.00 160.00 C 564.99 162.00 564.99 164.00 565.00 166.00 C 567.94 165.99 570.89 165.97 573.84 166.04 C 573.79 167.28 573.75 168.52 573.72 169.77 C 570.81 169.77 567.90 169.77 565.00 169.77 C 565.00 172.10 565.01 174.43 565.04 176.76 C 568.18 176.71 571.33 176.72 574.48 176.72 C 574.48 177.66 574.50 179.56 574.51 180.50 C 569.67 180.48 564.83 180.49 560.00 180.49 C 560.02 172.39 559.96 164.30 560.02 156.20 Z" />
<path fill="#0c0c0c" d=" M 590.01 156.20 C 591.93 156.22 593.85 156.24 595.77 156.27 C 599.33 161.76 602.49 167.51 606.17 172.93 C 606.30 167.37 606.19 161.80 606.24 156.24 C 607.74 156.24 609.25 156.24 610.76 156.25 C 610.72 164.37 610.90 172.49 610.66 180.61 C 608.75 180.53 606.86 180.47 604.96 180.43 C 601.36 174.95 598.40 169.05 594.45 163.82 C 594.51 169.38 594.47 174.94 594.50 180.51 C 592.99 180.49 591.49 180.49 590.00 180.48 C 590.01 172.39 589.97 164.29 590.01 156.20 Z" />
<path fill="#0c0c0c" d=" M 628.16 156.81 C 632.02 155.09 636.45 156.12 640.38 157.13 C 639.99 158.49 639.60 159.85 639.21 161.21 C 636.38 160.73 633.28 158.80 630.56 160.56 C 629.58 161.61 629.42 163.40 630.53 164.42 C 633.29 166.49 636.99 167.06 639.45 169.58 C 641.96 172.78 640.94 178.33 637.01 179.92 C 633.08 181.50 628.64 180.77 624.62 179.93 C 624.55 178.38 624.51 176.83 624.48 175.28 C 627.32 175.95 630.13 177.33 633.13 176.93 C 635.26 176.66 636.80 173.80 635.00 172.20 C 632.02 169.73 627.28 169.41 625.41 165.65 C 624.29 162.56 624.83 158.32 628.16 156.81 Z" />
<path fill="#0c0c0c" d=" M 652.58 156.15 C 658.79 156.30 665.01 156.22 671.24 156.21 C 671.25 157.47 671.27 158.74 671.30 160.00 C 668.94 160.00 666.60 160.01 664.26 160.03 C 664.30 166.84 664.26 173.66 664.28 180.48 C 662.68 180.48 661.08 180.49 659.50 180.51 C 659.55 173.70 659.44 166.89 659.57 160.08 C 657.20 160.01 654.84 160.00 652.49 160.00 C 652.51 158.71 652.54 157.43 652.58 156.15 Z" />
<path fill="#0c0c0c" d=" M 685.01 156.21 C 689.84 156.24 694.66 156.23 699.49 156.23 C 699.51 157.45 699.55 158.66 699.60 159.88 C 696.40 160.07 693.20 160.01 690.00 160.00 C 689.99 162.00 689.99 164.00 690.00 166.00 C 692.93 166.00 695.86 165.98 698.80 166.01 C 698.77 167.26 698.75 168.51 698.74 169.75 C 695.82 169.77 692.91 169.77 690.00 169.77 C 690.00 172.10 690.01 174.43 690.05 176.76 C 693.18 176.71 696.32 176.72 699.46 176.71 C 699.48 177.66 699.51 179.55 699.52 180.50 C 694.68 180.48 689.84 180.49 685.00 180.49 C 685.01 172.39 684.97 164.30 685.01 156.21 Z" />
<path fill="#0c0c0c" d=" M 714.02 156.21 C 720.02 156.51 727.48 154.81 731.91 160.05 C 735.47 165.18 735.37 173.36 730.65 177.76 C 725.98 181.61 719.56 180.26 714.00 180.48 C 714.02 172.39 713.96 164.30 714.02 156.21 Z" />
<path fill="#0c0c0c" d=" M 746.59 156.14 C 752.78 156.30 758.97 156.25 765.16 156.17 C 765.21 157.45 765.26 158.72 765.32 160.00 C 762.96 160.00 760.60 160.01 758.25 160.04 C 758.31 166.85 758.26 173.66 758.28 180.48 C 756.68 180.48 755.08 180.49 753.50 180.51 C 753.55 173.70 753.44 166.89 753.57 160.08 C 751.20 160.01 748.84 160.00 746.48 160.00 C 746.51 158.71 746.54 157.43 746.59 156.14 Z" />
<path fill="#0c0c0c" d=" M 800.01 156.20 C 801.58 156.22 803.17 156.24 804.76 156.26 C 804.98 162.15 804.33 168.10 805.12 173.96 C 806.58 178.21 813.76 177.88 814.50 173.32 C 815.05 167.62 814.52 161.87 814.77 156.15 C 816.37 156.22 817.98 156.28 819.61 156.36 C 819.28 162.22 819.68 168.09 819.41 173.95 C 818.17 183.26 801.50 183.45 800.07 174.13 C 799.88 168.16 800.04 162.18 800.01 156.20 Z" />
<path fill="#0c0c0c" d=" M 835.02 156.20 C 836.67 156.21 838.33 156.22 840.00 156.23 C 840.02 163.07 839.97 169.91 840.03 176.75 C 843.35 176.71 846.67 176.72 850.00 176.72 C 850.00 177.66 850.00 179.55 850.00 180.49 C 845.00 180.49 840.00 180.49 835.00 180.49 C 835.02 172.39 834.96 164.30 835.02 156.20 Z" />
<path fill="#0c0c0c" d=" M 862.34 156.37 C 868.05 156.06 873.77 156.33 879.49 156.20 C 879.47 157.41 879.47 158.62 879.47 159.84 C 875.56 165.40 871.79 171.04 868.05 176.71 C 872.03 176.72 876.01 176.72 880.00 176.72 C 880.00 177.66 880.00 179.55 880.00 180.49 C 873.95 180.49 867.91 180.50 861.86 180.48 C 862.04 178.94 861.79 177.21 862.88 175.94 C 866.47 170.64 870.13 165.38 873.62 160.01 C 869.94 160.00 866.26 160.00 862.58 160.00 C 862.52 159.09 862.40 157.28 862.34 156.37 Z" />
<path fill="#0c0c0c" d=" M 894.01 156.21 C 898.62 156.43 903.41 155.64 907.88 157.07 C 912.42 158.31 912.53 165.64 908.44 167.56 C 913.61 169.76 913.14 178.22 907.79 179.86 C 903.31 181.10 898.58 180.25 894.00 180.48 C 894.01 172.39 893.97 164.30 894.01 156.21 Z" />
<path fill="#0c0c0c" d=" M 926.02 156.19 C 927.59 156.21 929.17 156.24 930.76 156.26 C 930.98 162.16 930.32 168.12 931.12 173.97 C 932.58 178.20 939.71 177.89 940.48 173.37 C 941.05 167.69 940.54 161.95 940.74 156.25 C 942.30 156.22 943.87 156.20 945.45 156.16 C 945.46 162.09 945.61 168.02 945.41 173.94 C 944.19 183.25 927.50 183.45 926.07 174.14 C 925.88 168.16 926.03 162.17 926.02 156.19 Z" />
<path fill="#0c0c0c" d=" M 961.03 156.20 C 965.94 156.59 971.57 155.09 975.86 158.20 C 979.30 161.70 977.94 168.01 973.57 170.12 C 975.74 173.57 977.95 176.99 980.03 180.50 C 978.06 180.49 976.13 180.47 974.19 180.39 C 972.52 177.19 970.56 174.17 968.77 171.04 C 968.08 171.03 966.69 171.01 966.00 170.99 C 965.99 174.16 965.99 177.32 966.00 180.49 C 964.32 180.49 962.65 180.49 961.00 180.49 C 961.02 172.39 960.95 164.30 961.03 156.20 Z" />
<path fill="#0c0c0c" d=" M 999.48 156.58 C 1003.72 155.51 1008.46 155.61 1012.49 157.48 C 1011.92 158.70 1011.37 159.92 1010.83 161.14 C 1007.76 160.40 1004.45 158.91 1001.40 160.53 C 996.25 163.07 995.67 170.72 999.06 174.91 C 1001.22 177.39 1004.78 177.12 1007.73 176.69 C 1007.71 174.80 1007.72 172.91 1007.74 171.03 C 1006.06 171.01 1004.38 171.00 1002.72 171.00 C 1002.71 169.66 1002.71 168.33 1002.72 167.00 C 1005.97 167.00 1009.23 167.00 1012.49 167.00 C 1012.49 171.19 1012.45 175.39 1012.54 179.59 C 1006.91 180.98 999.78 182.27 995.11 177.97 C 989.71 171.78 990.79 159.25 999.48 156.58 Z" />
<path fill="#feffff" d=" M 719.00 159.96 C 722.19 159.92 726.19 160.04 728.02 163.15 C 729.79 166.57 729.67 171.15 727.31 174.27 C 725.32 176.74 721.94 176.61 719.10 176.89 C 718.92 171.25 719.03 165.60 719.00 159.96 Z" />
<path fill="#feffff" d=" M 899.00 159.96 C 900.85 160.05 902.78 159.89 904.57 160.52 C 906.29 161.10 906.79 163.33 905.78 164.76 C 903.98 166.54 901.25 165.84 899.00 166.01 C 898.99 163.99 898.99 161.98 899.00 159.96 Z" />
<path fill="#feffff" d=" M 966.00 159.91 C 967.98 160.10 970.20 159.96 971.88 161.25 C 973.06 162.69 973.04 165.13 971.51 166.32 C 969.93 167.52 967.83 167.11 966.01 167.31 C 965.99 164.84 965.99 162.37 966.00 159.91 Z" />
<path fill="#0c0c0c" d=" M 776.20 169.49 C 779.30 169.52 782.40 169.52 785.51 169.50 C 785.50 170.44 785.48 172.33 785.47 173.28 C 782.40 173.27 779.34 173.27 776.28 173.29 C 776.26 172.34 776.22 170.44 776.20 169.49 Z" />
<path fill="#feffff" d=" M 899.00 169.73 C 901.78 169.84 906.55 169.08 907.00 172.96 C 906.90 177.11 901.99 176.79 899.05 176.81 C 899.00 174.45 898.99 172.09 899.00 169.73 Z" />
<path fill="#0787bf" d=" M 526.99 185.00 C 530.66 185.00 534.33 185.00 538.00 185.00 C 537.35 199.04 540.86 213.36 548.87 225.00 C 557.51 237.87 571.02 247.40 586.10 251.09 C 601.22 254.93 617.74 252.88 631.47 245.47 C 646.70 237.37 658.35 222.80 662.78 206.12 C 664.71 199.26 665.15 192.09 665.00 185.00 C 669.00 185.00 673.00 185.00 677.01 185.00 C 677.53 199.67 673.86 214.50 666.14 227.02 C 657.23 241.71 643.12 253.14 626.89 258.78 C 610.47 264.58 592.03 264.39 575.73 258.28 C 559.85 252.41 546.13 240.96 537.49 226.40 C 530.02 214.02 526.49 199.43 526.99 185.00 Z" />
<path fill="#0787bf" d=" M 560.11 185.34 C 563.65 185.51 567.21 185.50 570.77 185.35 C 571.39 195.01 575.78 204.63 583.85 210.26 C 594.04 217.87 609.04 217.85 619.22 210.21 C 627.22 204.59 631.67 195.01 632.18 185.38 C 636.42 185.49 640.67 185.51 644.91 185.35 C 644.93 198.39 638.16 211.11 627.65 218.74 C 617.03 226.68 602.58 229.10 589.94 225.10 C 572.86 220.04 559.96 203.24 560.11 185.34 Z" />
</svg>
